<?xml version="1.0" encoding="UTF-8" standalone="no"?>
<svg xmlns="http://www.w3.org/2000/svg" width="80" height="34" viewBox="0 0 80 34" id="back-to-top-anchor"><g fill="none" fill-rule="evenodd"><path fill="#403F41" fill-opacity=".8" d="M68.935 0l-.7 11.176.401-.024C71.64 10.897 74 8.94 74.114 5.778 74.222 2.785 71.927.258 68.935 0z"></path><path fill="#BCD537" fill-opacity=".8" d="M74.228 5.298C77.22 5.193 79.743 7.49 80 10.482l-11.176.694.024-.406c.26-3.003 2.22-5.362 5.38-5.472zm-5.404 5.878zm0 0z"></path><path fill="#E1E8F0" d="M68.235 25.294H65.43v-.758a5.452 5.452 0 0 1-2.782.758c-1.532 0-2.847-.554-3.943-1.664-1.097-1.109-1.645-2.43-1.645-3.963v-2.838c0-1.55.548-2.88 1.645-3.989 1.096-1.109 2.41-1.664 3.943-1.664.984 0 1.911.262 2.782.783v-.783h2.806v14.118zm-2.806-5.627v-2.838a2.72 2.72 0 0 0-.822-1.982c-.549-.555-1.202-.832-1.96-.832-.774 0-1.435.277-1.984.832a2.721 2.721 0 0 0-.822 1.982v2.838c0 .766.274 1.427.822 1.982.549.554 1.21.831 1.984.831.758 0 1.411-.277 1.96-.831a2.72 2.72 0 0 0 .822-1.982zM55.882 25.294h-2.806v-.758a5.452 5.452 0 0 1-2.782.758c-1.532 0-2.846-.554-3.943-1.664-1.097-1.109-1.645-2.43-1.645-3.963v-2.838c0-1.55.548-2.88 1.645-3.989s2.411-1.664 3.943-1.664c.984 0 1.911.262 2.782.783v-.783h2.806v14.118zm-2.806-5.627v-2.838a2.72 2.72 0 0 0-.822-1.982c-.549-.555-1.202-.832-1.96-.832-.774 0-1.435.277-1.984.832a2.721 2.721 0 0 0-.822 1.982v2.838c0 .766.274 1.427.822 1.982.549.554 1.21.831 1.984.831.758 0 1.411-.277 1.96-.831a2.72 2.72 0 0 0 .822-1.982zM44.706 11.176L35.909 33.53h-3.14l3.452-8.766-5.633-13.587h3.14l4.027 9.688 3.787-9.688zM29.412 27.941c0 1.532-.549 2.847-1.645 3.943-1.097 1.097-2.411 1.645-3.944 1.645-1.532 0-2.846-.548-3.943-1.645-1.096-1.096-1.645-2.41-1.645-3.943h2.782c.016.758.295 1.411.835 1.96.54.548 1.197.822 1.971.822.758 0 1.412-.274 1.96-.822.548-.549.822-1.202.822-1.96 0-1.596-.927-2.532-2.782-2.806-.37-.032-.91-.121-1.62-.266a5.176 5.176 0 0 1-2.867-1.972 5.457 5.457 0 0 1-1.1-3.326v-2.806c0-1.532.548-2.847 1.644-3.944 1.097-1.096 2.411-1.645 3.943-1.645.984 0 1.912.259 2.782.775v-.75h2.807v8.37c0 1.661-.637 3.056-1.911 4.185 1.274 1.113 1.91 2.508 1.91 4.185zm-2.807-8.37v-2.806c0-.758-.274-1.411-.822-1.96-.548-.548-1.202-.822-1.96-.822-.774 0-1.435.274-1.983.822-.549.549-.823 1.202-.823 1.96v2.806c0 .758.274 1.411.823 1.96.548.548 1.21.822 1.983.822.758 0 1.412-.274 1.96-.823.548-.548.822-1.201.822-1.96zM16.47 25.294h-2.94V11.176h2.94zM8.919 11.176L5.87 21.061l-3.049-9.885H0l4.52 14.118h2.724l4.52-14.118z"></path></g></svg>